<svg width="1728" height="104" viewBox="0 0 1728 104" fill="none" xmlns="http://www.w3.org/2000/svg">
<rect width="1732" height="104" transform="translate(-4)" fill="white"/>
<path d="M96.0001 33.7179L112.149 67.884H79.8516L96.0001 33.7179Z" fill="#FECD2F"/>
<path fill-rule="evenodd" clip-rule="evenodd" d="M86.4602 63.7672H105.54L96 43.5835L86.4602 63.7672ZM76 66.1661L92.1486 32H99.8514L116 66.1661L112.149 72H79.8514L76 66.1661Z" fill="url(#paint0_linear_113_1797)"/>
<path d="M127.36 65L137.32 42.05H137.56L147.52 65H142.48L136.12 48.86L139.27 46.7L131.65 65H127.36ZM134.17 57.02H140.8L142.33 60.68H132.82L134.17 57.02ZM150.049 41.33H154.249V65H150.049V41.33ZM162.804 65.63C161.624 65.63 160.634 65.27 159.834 64.55C159.034 63.81 158.614 62.86 158.574 61.7V51.89H162.774V60.14C162.814 60.72 162.964 61.19 163.224 61.55C163.484 61.89 163.924 62.06 164.544 62.06C165.164 62.06 165.694 61.85 166.134 61.43C166.594 61.01 166.944 60.44 167.184 59.72C167.444 58.98 167.574 58.15 167.574 57.23V51.89H171.774V65H167.964L167.634 62.6L167.694 62.87C167.394 63.41 167.014 63.89 166.554 64.31C166.094 64.73 165.544 65.05 164.904 65.27C164.284 65.51 163.584 65.63 162.804 65.63ZM179.874 51.89L180.264 55.49L180.174 54.95C180.554 54.17 181.074 53.51 181.734 52.97C182.394 52.41 183.044 51.98 183.684 51.68C184.344 51.38 184.844 51.23 185.184 51.23L184.974 55.43C183.994 55.31 183.154 55.47 182.454 55.91C181.754 56.35 181.214 56.93 180.834 57.65C180.454 58.37 180.264 59.11 180.264 59.87V65H176.094V51.89H179.874ZM193.479 65.36C192.259 65.36 191.149 65.12 190.149 64.64C189.169 64.14 188.389 63.38 187.809 62.36C187.229 61.34 186.939 60.04 186.939 58.46C186.939 56.98 187.239 55.7 187.839 54.62C188.439 53.54 189.229 52.71 190.209 52.13C191.189 51.53 192.229 51.23 193.329 51.23C194.629 51.23 195.609 51.45 196.269 51.89C196.949 52.31 197.509 52.78 197.949 53.3L197.769 53.81L198.159 51.89H202.059V65H197.859V62.15L198.189 63.05C198.149 63.05 198.029 63.17 197.829 63.41C197.629 63.63 197.329 63.9 196.929 64.22C196.549 64.52 196.069 64.78 195.489 65C194.929 65.24 194.259 65.36 193.479 65.36ZM194.679 61.94C195.179 61.94 195.629 61.87 196.029 61.73C196.429 61.57 196.779 61.35 197.079 61.07C197.379 60.77 197.639 60.4 197.859 59.96V56.75C197.699 56.31 197.459 55.94 197.139 55.64C196.819 55.32 196.439 55.08 195.999 54.92C195.559 54.74 195.069 54.65 194.529 54.65C193.929 54.65 193.369 54.81 192.849 55.13C192.349 55.43 191.949 55.85 191.649 56.39C191.349 56.93 191.199 57.55 191.199 58.25C191.199 58.95 191.359 59.58 191.679 60.14C191.999 60.7 192.419 61.14 192.939 61.46C193.479 61.78 194.059 61.94 194.679 61.94ZM212.927 43.31C215.107 43.31 216.817 43.76 218.057 44.66C219.317 45.54 219.947 46.92 219.947 48.8C219.947 49.94 219.687 50.93 219.167 51.77C218.647 52.61 217.917 53.27 216.977 53.75C216.057 54.23 214.967 54.5 213.707 54.56L213.287 53.06C214.747 53.1 216.057 53.36 217.217 53.84C218.377 54.32 219.297 54.99 219.977 55.85C220.657 56.71 220.997 57.73 220.997 58.91C220.997 59.99 220.797 60.92 220.397 61.7C219.997 62.46 219.457 63.09 218.777 63.59C218.097 64.07 217.327 64.43 216.467 64.67C215.607 64.89 214.717 65 213.797 65H207.347V43.31H212.927ZM213.527 52.82C214.727 52.82 215.597 52.49 216.137 51.83C216.677 51.15 216.947 50.33 216.947 49.37C216.947 48.23 216.597 47.4 215.897 46.88C215.197 46.36 214.257 46.1 213.077 46.1H210.257V52.82H213.527ZM213.647 62.3C214.447 62.3 215.177 62.18 215.837 61.94C216.517 61.7 217.047 61.33 217.427 60.83C217.827 60.33 218.027 59.7 218.027 58.94C218.027 58.1 217.797 57.44 217.337 56.96C216.897 56.48 216.327 56.14 215.627 55.94C214.927 55.72 214.207 55.61 213.467 55.61H210.257V62.3H213.647ZM224.121 58.67C224.121 57.43 224.411 56.31 224.991 55.31C225.591 54.31 226.411 53.52 227.451 52.94C228.491 52.36 229.671 52.07 230.991 52.07C232.351 52.07 233.541 52.36 234.561 52.94C235.581 53.52 236.371 54.31 236.931 55.31C237.491 56.31 237.771 57.43 237.771 58.67C237.771 59.91 237.491 61.04 236.931 62.06C236.371 63.06 235.571 63.85 234.531 64.43C233.511 65.01 232.321 65.3 230.961 65.3C229.641 65.3 228.461 65.03 227.421 64.49C226.401 63.93 225.591 63.16 224.991 62.18C224.411 61.18 224.121 60.01 224.121 58.67ZM226.911 58.7C226.911 59.5 227.091 60.23 227.451 60.89C227.811 61.53 228.291 62.04 228.891 62.42C229.511 62.8 230.191 62.99 230.931 62.99C231.711 62.99 232.401 62.8 233.001 62.42C233.621 62.04 234.101 61.53 234.441 60.89C234.781 60.23 234.951 59.5 234.951 58.7C234.951 57.9 234.781 57.18 234.441 56.54C234.101 55.88 233.621 55.36 233.001 54.98C232.401 54.58 231.711 54.38 230.931 54.38C230.171 54.38 229.481 54.58 228.861 54.98C228.261 55.38 227.781 55.91 227.421 56.57C227.081 57.21 226.911 57.92 226.911 58.7ZM240.469 58.67C240.469 57.43 240.759 56.31 241.339 55.31C241.939 54.31 242.759 53.52 243.799 52.94C244.839 52.36 246.019 52.07 247.339 52.07C248.699 52.07 249.889 52.36 250.909 52.94C251.929 53.52 252.719 54.31 253.279 55.31C253.839 56.31 254.119 57.43 254.119 58.67C254.119 59.91 253.839 61.04 253.279 62.06C252.719 63.06 251.919 63.85 250.879 64.43C249.859 65.01 248.669 65.3 247.309 65.3C245.989 65.3 244.809 65.03 243.769 64.49C242.749 63.93 241.939 63.16 241.339 62.18C240.759 61.18 240.469 60.01 240.469 58.67ZM243.259 58.7C243.259 59.5 243.439 60.23 243.799 60.89C244.159 61.53 244.639 62.04 245.239 62.42C245.859 62.8 246.539 62.99 247.279 62.99C248.059 62.99 248.749 62.8 249.349 62.42C249.969 62.04 250.449 61.53 250.789 60.89C251.129 60.23 251.299 59.5 251.299 58.7C251.299 57.9 251.129 57.18 250.789 56.54C250.449 55.88 249.969 55.36 249.349 54.98C248.749 54.58 248.059 54.38 247.279 54.38C246.519 54.38 245.829 54.58 245.209 54.98C244.609 55.38 244.129 55.91 243.769 56.57C243.429 57.21 243.259 57.92 243.259 58.7ZM257.897 65V41.78H260.687V65H257.897ZM263.687 56.75L269.387 65H266.117L261.827 58.31L263.687 56.75ZM259.817 61.04L259.547 58.37L267.077 52.31L268.787 53.78L259.817 61.04ZM276.318 65.24C275.438 65.24 274.578 65.09 273.738 64.79C272.918 64.47 272.238 64 271.698 63.38L272.868 61.76C273.388 62.26 273.918 62.64 274.458 62.9C275.018 63.14 275.568 63.26 276.108 63.26C276.508 63.26 276.878 63.21 277.218 63.11C277.558 63.01 277.828 62.85 278.028 62.63C278.248 62.39 278.358 62.07 278.358 61.67C278.358 61.23 278.208 60.88 277.908 60.62C277.628 60.36 277.258 60.15 276.798 59.99C276.358 59.83 275.888 59.68 275.388 59.54C274.368 59.2 273.588 58.73 273.048 58.13C272.508 57.53 272.238 56.8 272.238 55.94C272.238 55.28 272.398 54.67 272.718 54.11C273.058 53.53 273.548 53.06 274.188 52.7C274.848 52.34 275.658 52.16 276.618 52.16C277.478 52.16 278.248 52.27 278.928 52.49C279.608 52.69 280.248 53.03 280.848 53.51L279.738 55.25C279.378 54.87 278.948 54.59 278.448 54.41C277.948 54.23 277.498 54.13 277.098 54.11C276.758 54.09 276.428 54.14 276.108 54.26C275.808 54.38 275.558 54.55 275.358 54.77C275.158 54.99 275.058 55.25 275.058 55.55C275.058 55.97 275.198 56.31 275.478 56.57C275.758 56.83 276.118 57.04 276.558 57.2C277.018 57.34 277.468 57.49 277.908 57.65C278.528 57.83 279.078 58.07 279.558 58.37C280.038 58.67 280.418 59.04 280.698 59.48C280.998 59.92 281.148 60.47 281.148 61.13C281.148 61.87 280.968 62.56 280.608 63.2C280.268 63.82 279.738 64.32 279.018 64.7C278.318 65.06 277.418 65.24 276.318 65.24Z" fill="black"/>
<path d="M350.688 52.416C350.688 51.328 350.933 50.352 351.424 49.488C351.915 48.6133 352.581 47.9307 353.424 47.44C354.277 46.9493 355.221 46.704 356.256 46.704C357.472 46.704 358.533 46.9973 359.44 47.584C360.347 48.1707 361.008 49.0027 361.424 50.08H359.68C359.371 49.408 358.923 48.8907 358.336 48.528C357.76 48.1653 357.067 47.984 356.256 47.984C355.477 47.984 354.779 48.1653 354.16 48.528C353.541 48.8907 353.056 49.408 352.704 50.08C352.352 50.7413 352.176 51.52 352.176 52.416C352.176 53.3013 352.352 54.08 352.704 54.752C353.056 55.4133 353.541 55.9253 354.16 56.288C354.779 56.6507 355.477 56.832 356.256 56.832C357.067 56.832 357.76 56.656 358.336 56.304C358.923 55.9413 359.371 55.424 359.68 54.752H361.424C361.008 55.8187 360.347 56.6453 359.44 57.232C358.533 57.808 357.472 58.096 356.256 58.096C355.221 58.096 354.277 57.856 353.424 57.376C352.581 56.8853 351.915 56.208 351.424 55.344C350.933 54.48 350.688 53.504 350.688 52.416ZM370.183 55.52H365.319L364.423 58H362.887L366.919 46.912H368.599L372.615 58H371.079L370.183 55.52ZM369.767 54.336L367.751 48.704L365.735 54.336H369.767ZM381.237 46.848V48.032H378.197V58H376.741V48.032H373.685V46.848H381.237ZM384.485 48.032V51.76H388.549V52.96H384.485V56.8H389.029V58H383.029V46.832H389.029V48.032H384.485ZM399.68 50.08C399.371 49.4293 398.923 48.928 398.336 48.576C397.749 48.2133 397.067 48.032 396.288 48.032C395.509 48.032 394.805 48.2133 394.176 48.576C393.557 48.928 393.067 49.44 392.704 50.112C392.352 50.7733 392.176 51.5413 392.176 52.416C392.176 53.2907 392.352 54.0587 392.704 54.72C393.067 55.3813 393.557 55.8933 394.176 56.256C394.805 56.608 395.509 56.784 396.288 56.784C397.376 56.784 398.272 56.4587 398.976 55.808C399.68 55.1573 400.091 54.2773 400.208 53.168H395.76V51.984H401.76V53.104C401.675 54.0213 401.387 54.864 400.896 55.632C400.405 56.3893 399.76 56.992 398.96 57.44C398.16 57.8773 397.269 58.096 396.288 58.096C395.253 58.096 394.309 57.856 393.456 57.376C392.603 56.8853 391.925 56.208 391.424 55.344C390.933 54.48 390.688 53.504 390.688 52.416C390.688 51.328 390.933 50.352 391.424 49.488C391.925 48.6133 392.603 47.936 393.456 47.456C394.309 46.9653 395.253 46.72 396.288 46.72C397.472 46.72 398.517 47.0133 399.424 47.6C400.341 48.1867 401.008 49.0133 401.424 50.08H399.68ZM408.741 58.112C407.706 58.112 406.762 57.872 405.909 57.392C405.056 56.9013 404.378 56.224 403.877 55.36C403.386 54.4853 403.141 53.504 403.141 52.416C403.141 51.328 403.386 50.352 403.877 49.488C404.378 48.6133 405.056 47.936 405.909 47.456C406.762 46.9653 407.706 46.72 408.741 46.72C409.786 46.72 410.736 46.9653 411.589 47.456C412.442 47.936 413.114 48.608 413.605 49.472C414.096 50.336 414.341 51.3173 414.341 52.416C414.341 53.5147 414.096 54.496 413.605 55.36C413.114 56.224 412.442 56.9013 411.589 57.392C410.736 57.872 409.786 58.112 408.741 58.112ZM408.741 56.848C409.52 56.848 410.218 56.6667 410.837 56.304C411.466 55.9413 411.957 55.424 412.309 54.752C412.672 54.08 412.853 53.3013 412.853 52.416C412.853 51.52 412.672 50.7413 412.309 50.08C411.957 49.408 411.472 48.8907 410.853 48.528C410.234 48.1653 409.53 47.984 408.741 47.984C407.952 47.984 407.248 48.1653 406.629 48.528C406.01 48.8907 405.52 49.408 405.157 50.08C404.805 50.7413 404.629 51.52 404.629 52.416C404.629 53.3013 404.805 54.08 405.157 54.752C405.52 55.424 406.01 55.9413 406.629 56.304C407.258 56.6667 407.962 56.848 408.741 56.848ZM422.135 58L419.479 53.44H417.719V58H416.263V46.848H419.863C420.706 46.848 421.415 46.992 421.991 47.28C422.578 47.568 423.015 47.9573 423.303 48.448C423.591 48.9387 423.735 49.4987 423.735 50.128C423.735 50.896 423.511 51.5733 423.063 52.16C422.626 52.7467 421.965 53.136 421.079 53.328L423.879 58H422.135ZM417.719 52.272H419.863C420.653 52.272 421.245 52.08 421.639 51.696C422.034 51.3013 422.231 50.7787 422.231 50.128C422.231 49.4667 422.034 48.9547 421.639 48.592C421.255 48.2293 420.663 48.048 419.863 48.048H417.719V52.272ZM427.454 46.848V58H425.998V46.848H427.454ZM436.527 55.52H431.663L430.767 58H429.231L433.263 46.912H434.943L438.959 58H437.423L436.527 55.52ZM436.111 54.336L434.095 48.704L432.079 54.336H436.111ZM444.252 58.112C443.516 58.112 442.855 57.984 442.268 57.728C441.692 57.4613 441.239 57.0987 440.908 56.64C440.578 56.1707 440.407 55.632 440.396 55.024H441.948C442.002 55.5467 442.215 55.9893 442.588 56.352C442.972 56.704 443.527 56.88 444.252 56.88C444.946 56.88 445.49 56.7093 445.884 56.368C446.29 56.016 446.492 55.568 446.492 55.024C446.492 54.5973 446.375 54.2507 446.14 53.984C445.906 53.7173 445.612 53.5147 445.26 53.376C444.908 53.2373 444.434 53.088 443.836 52.928C443.1 52.736 442.508 52.544 442.06 52.352C441.623 52.16 441.244 51.8613 440.924 51.456C440.615 51.04 440.46 50.4853 440.46 49.792C440.46 49.184 440.615 48.6453 440.924 48.176C441.234 47.7067 441.666 47.344 442.22 47.088C442.786 46.832 443.431 46.704 444.156 46.704C445.202 46.704 446.055 46.9653 446.716 47.488C447.388 48.0107 447.767 48.704 447.852 49.568H446.252C446.199 49.1413 445.975 48.768 445.58 48.448C445.186 48.1173 444.663 47.952 444.012 47.952C443.404 47.952 442.908 48.112 442.524 48.432C442.14 48.7413 441.948 49.1787 441.948 49.744C441.948 50.1493 442.06 50.48 442.284 50.736C442.519 50.992 442.802 51.1893 443.132 51.328C443.474 51.456 443.948 51.6053 444.556 51.776C445.292 51.9787 445.884 52.1813 446.332 52.384C446.78 52.576 447.164 52.88 447.484 53.296C447.804 53.7013 447.964 54.256 447.964 54.96C447.964 55.504 447.82 56.016 447.532 56.496C447.244 56.976 446.818 57.3653 446.252 57.664C445.687 57.9627 445.02 58.112 444.252 58.112Z" fill="black"/>
<path d="M498.536 46.848V48.032H493.688V51.792H497.624V52.976H493.688V58H492.232V46.848H498.536ZM506.887 55.52H502.023L501.127 58H499.59L503.623 46.912H505.303L509.319 58H507.783L506.887 55.52ZM506.471 54.336L504.455 48.704L502.439 54.336H506.471ZM520.292 46.848L516.084 58H514.404L510.196 46.848H511.748L515.252 56.464L518.756 46.848H520.292ZM526.944 58.112C525.91 58.112 524.966 57.872 524.112 57.392C523.259 56.9013 522.582 56.224 522.08 55.36C521.59 54.4853 521.344 53.504 521.344 52.416C521.344 51.328 521.59 50.352 522.08 49.488C522.582 48.6133 523.259 47.936 524.112 47.456C524.966 46.9653 525.91 46.72 526.944 46.72C527.99 46.72 528.939 46.9653 529.792 47.456C530.646 47.936 531.318 48.608 531.808 49.472C532.299 50.336 532.544 51.3173 532.544 52.416C532.544 53.5147 532.299 54.496 531.808 55.36C531.318 56.224 530.646 56.9013 529.792 57.392C528.939 57.872 527.99 58.112 526.944 58.112ZM526.944 56.848C527.723 56.848 528.422 56.6667 529.04 56.304C529.67 55.9413 530.16 55.424 530.512 54.752C530.875 54.08 531.056 53.3013 531.056 52.416C531.056 51.52 530.875 50.7413 530.512 50.08C530.16 49.408 529.675 48.8907 529.056 48.528C528.438 48.1653 527.734 47.984 526.944 47.984C526.155 47.984 525.451 48.1653 524.832 48.528C524.214 48.8907 523.723 49.408 523.36 50.08C523.008 50.7413 522.832 51.52 522.832 52.416C522.832 53.3013 523.008 54.08 523.36 54.752C523.723 55.424 524.214 55.9413 524.832 56.304C525.462 56.6667 526.166 56.848 526.944 56.848ZM540.338 58L537.682 53.44H535.922V58H534.466V46.848H538.066C538.909 46.848 539.618 46.992 540.194 47.28C540.781 47.568 541.218 47.9573 541.506 48.448C541.794 48.9387 541.938 49.4987 541.938 50.128C541.938 50.896 541.714 51.5733 541.266 52.16C540.829 52.7467 540.168 53.136 539.282 53.328L542.082 58H540.338ZM535.922 52.272H538.066C538.856 52.272 539.448 52.08 539.842 51.696C540.237 51.3013 540.434 50.7787 540.434 50.128C540.434 49.4667 540.237 48.9547 539.842 48.592C539.458 48.2293 538.866 48.048 538.066 48.048H535.922V52.272ZM545.657 46.848V58H544.201V46.848H545.657ZM555.002 46.848V48.032H551.962V58H550.506V48.032H547.45V46.848H555.002ZM561.851 58.112C560.816 58.112 559.872 57.872 559.019 57.392C558.165 56.9013 557.488 56.224 556.987 55.36C556.496 54.4853 556.251 53.504 556.251 52.416C556.251 51.328 556.496 50.352 556.987 49.488C557.488 48.6133 558.165 47.936 559.019 47.456C559.872 46.9653 560.816 46.72 561.851 46.72C562.896 46.72 563.845 46.9653 564.699 47.456C565.552 47.936 566.224 48.608 566.715 49.472C567.205 50.336 567.451 51.3173 567.451 52.416C567.451 53.5147 567.205 54.496 566.715 55.36C566.224 56.224 565.552 56.9013 564.699 57.392C563.845 57.872 562.896 58.112 561.851 58.112ZM561.851 56.848C562.629 56.848 563.328 56.6667 563.947 56.304C564.576 55.9413 565.067 55.424 565.419 54.752C565.781 54.08 565.963 53.3013 565.963 52.416C565.963 51.52 565.781 50.7413 565.419 50.08C565.067 49.408 564.581 48.8907 563.963 48.528C563.344 48.1653 562.64 47.984 561.851 47.984C561.061 47.984 560.357 48.1653 559.739 48.528C559.12 48.8907 558.629 49.408 558.267 50.08C557.915 50.7413 557.739 51.52 557.739 52.416C557.739 53.3013 557.915 54.08 558.267 54.752C558.629 55.424 559.12 55.9413 559.739 56.304C560.368 56.6667 561.072 56.848 561.851 56.848ZM572.909 58.112C572.173 58.112 571.511 57.984 570.925 57.728C570.349 57.4613 569.895 57.0987 569.565 56.64C569.234 56.1707 569.063 55.632 569.053 55.024H570.605C570.658 55.5467 570.871 55.9893 571.245 56.352C571.629 56.704 572.183 56.88 572.909 56.88C573.602 56.88 574.146 56.7093 574.541 56.368C574.946 56.016 575.149 55.568 575.149 55.024C575.149 54.5973 575.031 54.2507 574.797 53.984C574.562 53.7173 574.269 53.5147 573.917 53.376C573.565 53.2373 573.09 53.088 572.493 52.928C571.757 52.736 571.165 52.544 570.717 52.352C570.279 52.16 569.901 51.8613 569.581 51.456C569.271 51.04 569.117 50.4853 569.117 49.792C569.117 49.184 569.271 48.6453 569.581 48.176C569.89 47.7067 570.322 47.344 570.877 47.088C571.442 46.832 572.087 46.704 572.813 46.704C573.858 46.704 574.711 46.9653 575.373 47.488C576.045 48.0107 576.423 48.704 576.509 49.568H574.909C574.855 49.1413 574.631 48.768 574.237 48.448C573.842 48.1173 573.319 47.952 572.669 47.952C572.061 47.952 571.565 48.112 571.181 48.432C570.797 48.7413 570.605 49.1787 570.605 49.744C570.605 50.1493 570.717 50.48 570.941 50.736C571.175 50.992 571.458 51.1893 571.789 51.328C572.13 51.456 572.605 51.6053 573.213 51.776C573.949 51.9787 574.541 52.1813 574.989 52.384C575.437 52.576 575.821 52.88 576.141 53.296C576.461 53.7013 576.621 54.256 576.621 54.96C576.621 55.504 576.477 56.016 576.189 56.496C575.901 56.976 575.474 57.3653 574.909 57.664C574.343 57.9627 573.677 58.112 572.909 58.112Z" fill="black"/>
<path d="M632.544 46.928V58H631.088V49.744L627.408 58H626.384L622.688 49.728V58H621.232V46.928H622.8L626.896 56.08L630.992 46.928H632.544ZM636.469 46.848V58H635.013V46.848H636.469ZM647.719 58H646.263L640.407 49.12V58H638.951V46.832H640.407L646.263 55.696V46.832H647.719V58ZM658.793 46.848V58H657.337V52.944H651.657V58H650.201V46.848H651.657V51.744H657.337V46.848H658.793ZM667.871 55.52H663.007L662.111 58H660.575L664.607 46.912H666.287L670.303 58H668.767L667.871 55.52ZM667.455 54.336L665.439 48.704L663.423 54.336H667.455ZM677.782 48.032V51.76H681.846V52.96H677.782V56.8H682.326V58H676.326V46.832H682.326V48.032H677.782ZM688.065 58.112C687.329 58.112 686.668 57.984 686.081 57.728C685.505 57.4613 685.052 57.0987 684.721 56.64C684.39 56.1707 684.22 55.632 684.209 55.024H685.761C685.814 55.5467 686.028 55.9893 686.401 56.352C686.785 56.704 687.34 56.88 688.065 56.88C688.758 56.88 689.302 56.7093 689.697 56.368C690.102 56.016 690.305 55.568 690.305 55.024C690.305 54.5973 690.188 54.2507 689.953 53.984C689.718 53.7173 689.425 53.5147 689.073 53.376C688.721 53.2373 688.246 53.088 687.649 52.928C686.913 52.736 686.321 52.544 685.873 52.352C685.436 52.16 685.057 51.8613 684.737 51.456C684.428 51.04 684.273 50.4853 684.273 49.792C684.273 49.184 684.428 48.6453 684.737 48.176C685.046 47.7067 685.478 47.344 686.033 47.088C686.598 46.832 687.244 46.704 687.969 46.704C689.014 46.704 689.868 46.9653 690.529 47.488C691.201 48.0107 691.58 48.704 691.665 49.568H690.065C690.012 49.1413 689.788 48.768 689.393 48.448C688.998 48.1173 688.476 47.952 687.825 47.952C687.217 47.952 686.721 48.112 686.337 48.432C685.953 48.7413 685.761 49.1787 685.761 49.744C685.761 50.1493 685.873 50.48 686.097 50.736C686.332 50.992 686.614 51.1893 686.945 51.328C687.286 51.456 687.761 51.6053 688.369 51.776C689.105 51.9787 689.697 52.1813 690.145 52.384C690.593 52.576 690.977 52.88 691.297 53.296C691.617 53.7013 691.777 54.256 691.777 54.96C691.777 55.504 691.633 56.016 691.345 56.496C691.057 56.976 690.63 57.3653 690.065 57.664C689.5 57.9627 688.833 58.112 688.065 58.112ZM700.784 46.848V48.032H697.744V58H696.288V48.032H693.232V46.848H700.784ZM709.168 55.52H704.304L703.408 58H701.872L705.904 46.912H707.584L711.6 58H710.064L709.168 55.52ZM708.752 54.336L706.736 48.704L704.72 54.336H708.752ZM722.125 58H720.669L714.813 49.12V58H713.357V46.832H714.813L720.669 55.696V46.832H722.125V58ZM731.471 46.848V48.032H728.431V58H726.975V48.032H723.919V46.848H731.471ZM734.719 48.032V51.76H738.783V52.96H734.719V56.8H739.263V58H733.263V46.832H739.263V48.032H734.719Z" fill="black"/>
<g clip-path="url(#clip0_113_1797)">
<path d="M1301.5 42.5H1298.33C1298.33 39.0008 1295.5 36.1666 1292 36.1666C1288.5 36.1666 1285.67 39.0008 1285.67 42.5H1282.5C1280.76 42.5 1279.33 43.925 1279.33 45.6666V64.6666C1279.33 66.4083 1280.76 67.8333 1282.5 67.8333H1301.5C1303.24 67.8333 1304.67 66.4083 1304.67 64.6666V45.6666C1304.67 43.925 1303.24 42.5 1301.5 42.5ZM1292 39.3333C1293.74 39.3333 1295.17 40.7583 1295.17 42.5H1288.83C1288.83 40.7583 1290.26 39.3333 1292 39.3333ZM1301.5 64.6666H1282.5V45.6666H1285.67V48.8333C1285.67 49.7041 1286.38 50.4166 1287.25 50.4166C1288.12 50.4166 1288.83 49.7041 1288.83 48.8333V45.6666H1295.17V48.8333C1295.17 49.7041 1295.88 50.4166 1296.75 50.4166C1297.62 50.4166 1298.33 49.7041 1298.33 48.8333V45.6666H1301.5V64.6666Z" fill="#002F52"/>
</g>
<path d="M1330.68 45.16V59H1328.86V48.68L1324.26 59H1322.98L1318.36 48.66V59H1316.54V45.16H1318.5L1323.62 56.6L1328.74 45.16H1330.68ZM1334.71 46.26C1334.36 46.26 1334.07 46.14 1333.83 45.9C1333.59 45.66 1333.47 45.3667 1333.47 45.02C1333.47 44.6733 1333.59 44.38 1333.83 44.14C1334.07 43.9 1334.36 43.78 1334.71 43.78C1335.04 43.78 1335.32 43.9 1335.55 44.14C1335.79 44.38 1335.91 44.6733 1335.91 45.02C1335.91 45.3667 1335.79 45.66 1335.55 45.9C1335.32 46.14 1335.04 46.26 1334.71 46.26ZM1335.59 48.04V59H1333.77V48.04H1335.59ZM1344.03 47.84C1345.36 47.84 1346.44 48.2467 1347.27 49.06C1348.1 49.86 1348.51 51.02 1348.51 52.54V59H1346.71V52.8C1346.71 51.7067 1346.44 50.8733 1345.89 50.3C1345.34 49.7133 1344.6 49.42 1343.65 49.42C1342.69 49.42 1341.92 49.72 1341.35 50.32C1340.79 50.92 1340.51 51.7933 1340.51 52.94V59H1338.69V48.04H1340.51V49.6C1340.87 49.04 1341.36 48.6067 1341.97 48.3C1342.6 47.9933 1343.28 47.84 1344.03 47.84ZM1356.92 47.84C1357.75 47.84 1358.49 48.02 1359.16 48.38C1359.83 48.7267 1360.35 49.2533 1360.72 49.96C1361.11 50.6667 1361.3 51.5267 1361.3 52.54V59H1359.5V52.8C1359.5 51.7067 1359.23 50.8733 1358.68 50.3C1358.13 49.7133 1357.39 49.42 1356.44 49.42C1355.48 49.42 1354.71 49.72 1354.14 50.32C1353.58 50.92 1353.3 51.7933 1353.3 52.94V59H1351.48V44.2H1353.3V49.6C1353.66 49.04 1354.15 48.6067 1354.78 48.3C1355.42 47.9933 1356.13 47.84 1356.92 47.84ZM1363.59 53.48C1363.59 52.36 1363.82 51.38 1364.27 50.54C1364.73 49.6867 1365.35 49.0267 1366.13 48.56C1366.93 48.0933 1367.82 47.86 1368.79 47.86C1369.75 47.86 1370.59 48.0667 1371.29 48.48C1372 48.8933 1372.53 49.4133 1372.87 50.04V48.04H1374.71V59H1372.87V56.96C1372.51 57.6 1371.97 58.1333 1371.25 58.56C1370.55 58.9733 1369.72 59.18 1368.77 59.18C1367.8 59.18 1366.92 58.94 1366.13 58.46C1365.35 57.98 1364.73 57.3067 1364.27 56.44C1363.82 55.5733 1363.59 54.5867 1363.59 53.48ZM1372.87 53.5C1372.87 52.6733 1372.71 51.9533 1372.37 51.34C1372.04 50.7267 1371.59 50.26 1371.01 49.94C1370.45 49.6067 1369.83 49.44 1369.15 49.44C1368.47 49.44 1367.85 49.6 1367.29 49.92C1366.73 50.24 1366.29 50.7067 1365.95 51.32C1365.62 51.9333 1365.45 52.6533 1365.45 53.48C1365.45 54.32 1365.62 55.0533 1365.95 55.68C1366.29 56.2933 1366.73 56.7667 1367.29 57.1C1367.85 57.42 1368.47 57.58 1369.15 57.58C1369.83 57.58 1370.45 57.42 1371.01 57.1C1371.59 56.7667 1372.04 56.2933 1372.37 55.68C1372.71 55.0533 1372.87 54.3267 1372.87 53.5ZM1387 59.18C1386.16 59.18 1385.41 59.04 1384.74 58.76C1384.08 58.4667 1383.55 58.0667 1383.16 57.56C1382.78 57.04 1382.56 56.4467 1382.52 55.78H1384.4C1384.46 56.3267 1384.71 56.7733 1385.16 57.12C1385.63 57.4667 1386.24 57.64 1386.98 57.64C1387.68 57.64 1388.22 57.4867 1388.62 57.18C1389.02 56.8733 1389.22 56.4867 1389.22 56.02C1389.22 55.54 1389.01 55.1867 1388.58 54.96C1388.16 54.72 1387.5 54.4867 1386.6 54.26C1385.79 54.0467 1385.12 53.8333 1384.6 53.62C1384.1 53.3933 1383.66 53.0667 1383.28 52.64C1382.92 52.2 1382.74 51.6267 1382.74 50.92C1382.74 50.36 1382.91 49.8467 1383.24 49.38C1383.58 48.9133 1384.05 48.5467 1384.66 48.28C1385.28 48 1385.98 47.86 1386.76 47.86C1387.98 47.86 1388.96 48.1667 1389.7 48.78C1390.45 49.3933 1390.85 50.2333 1390.9 51.3H1389.08C1389.04 50.7267 1388.81 50.2667 1388.38 49.92C1387.97 49.5733 1387.41 49.4 1386.7 49.4C1386.05 49.4 1385.53 49.54 1385.14 49.82C1384.76 50.1 1384.56 50.4667 1384.56 50.92C1384.56 51.28 1384.68 51.58 1384.9 51.82C1385.14 52.0467 1385.44 52.2333 1385.78 52.38C1386.14 52.5133 1386.64 52.6667 1387.26 52.84C1388.05 53.0533 1388.69 53.2667 1389.18 53.48C1389.68 53.68 1390.1 53.9867 1390.44 54.4C1390.8 54.8133 1390.99 55.3533 1391 56.02C1391 56.62 1390.84 57.16 1390.5 57.64C1390.17 58.12 1389.7 58.5 1389.08 58.78C1388.48 59.0467 1387.79 59.18 1387 59.18ZM1392.89 53.48C1392.89 52.36 1393.12 51.38 1393.57 50.54C1394.02 49.6867 1394.64 49.0267 1395.43 48.56C1396.23 48.0933 1397.12 47.86 1398.09 47.86C1399.05 47.86 1399.88 48.0667 1400.59 48.48C1401.3 48.8933 1401.82 49.4133 1402.17 50.04V48.04H1404.01V59H1402.17V56.96C1401.81 57.6 1401.27 58.1333 1400.55 58.56C1399.84 58.9733 1399.02 59.18 1398.07 59.18C1397.1 59.18 1396.22 58.94 1395.43 58.46C1394.64 57.98 1394.02 57.3067 1393.57 56.44C1393.12 55.5733 1392.89 54.5867 1392.89 53.48ZM1402.17 53.5C1402.17 52.6733 1402 51.9533 1401.67 51.34C1401.34 50.7267 1400.88 50.26 1400.31 49.94C1399.75 49.6067 1399.13 49.44 1398.45 49.44C1397.77 49.44 1397.15 49.6 1396.59 49.92C1396.03 50.24 1395.58 50.7067 1395.25 51.32C1394.92 51.9333 1394.75 52.6533 1394.75 53.48C1394.75 54.32 1394.92 55.0533 1395.25 55.68C1395.58 56.2933 1396.03 56.7667 1396.59 57.1C1397.15 57.42 1397.77 57.58 1398.45 57.58C1399.13 57.58 1399.75 57.42 1400.31 57.1C1400.88 56.7667 1401.34 56.2933 1401.67 55.68C1402 55.0533 1402.17 54.3267 1402.17 53.5ZM1406.41 53.5C1406.41 52.3667 1406.63 51.38 1407.09 50.54C1407.54 49.6867 1408.17 49.0267 1408.97 48.56C1409.78 48.0933 1410.71 47.86 1411.75 47.86C1413.09 47.86 1414.2 48.1867 1415.07 48.84C1415.95 49.4933 1416.53 50.4 1416.81 51.56H1414.85C1414.66 50.8933 1414.29 50.3667 1413.75 49.98C1413.21 49.5933 1412.55 49.4 1411.75 49.4C1410.71 49.4 1409.87 49.76 1409.23 50.48C1408.59 51.1867 1408.27 52.1933 1408.27 53.5C1408.27 54.82 1408.59 55.84 1409.23 56.56C1409.87 57.28 1410.71 57.64 1411.75 57.64C1412.55 57.64 1413.21 57.4533 1413.75 57.08C1414.28 56.7067 1414.65 56.1733 1414.85 55.48H1416.81C1416.51 56.6 1415.93 57.5 1415.05 58.18C1414.17 58.8467 1413.07 59.18 1411.75 59.18C1410.71 59.18 1409.78 58.9467 1408.97 58.48C1408.17 58.0133 1407.54 57.3533 1407.09 56.5C1406.63 55.6467 1406.41 54.6467 1406.41 53.5ZM1424.02 59.18C1422.99 59.18 1422.06 58.9467 1421.22 58.48C1420.39 58.0133 1419.74 57.3533 1419.26 56.5C1418.79 55.6333 1418.56 54.6333 1418.56 53.5C1418.56 52.38 1418.8 51.3933 1419.28 50.54C1419.77 49.6733 1420.44 49.0133 1421.28 48.56C1422.12 48.0933 1423.06 47.86 1424.1 47.86C1425.14 47.86 1426.08 48.0933 1426.92 48.56C1427.76 49.0133 1428.42 49.6667 1428.9 50.52C1429.39 51.3733 1429.64 52.3667 1429.64 53.5C1429.64 54.6333 1429.38 55.6333 1428.88 56.5C1428.38 57.3533 1427.71 58.0133 1426.86 58.48C1426 58.9467 1425.06 59.18 1424.02 59.18ZM1424.02 57.58C1424.67 57.58 1425.28 57.4267 1425.86 57.12C1426.43 56.8133 1426.89 56.3533 1427.24 55.74C1427.6 55.1267 1427.78 54.38 1427.78 53.5C1427.78 52.62 1427.6 51.8733 1427.26 51.26C1426.91 50.6467 1426.46 50.1933 1425.9 49.9C1425.34 49.5933 1424.73 49.44 1424.08 49.44C1423.41 49.44 1422.8 49.5933 1422.24 49.9C1421.69 50.1933 1421.25 50.6467 1420.92 51.26C1420.58 51.8733 1420.42 52.62 1420.42 53.5C1420.42 54.3933 1420.58 55.1467 1420.9 55.76C1421.23 56.3733 1421.67 56.8333 1422.22 57.14C1422.76 57.4333 1423.36 57.58 1424.02 57.58ZM1433.85 44.2V59H1432.03V44.2H1433.85ZM1436.27 53.48C1436.27 52.36 1436.5 51.38 1436.95 50.54C1437.4 49.6867 1438.02 49.0267 1438.81 48.56C1439.61 48.0933 1440.5 47.86 1441.47 47.86C1442.43 47.86 1443.26 48.0667 1443.97 48.48C1444.68 48.8933 1445.2 49.4133 1445.55 50.04V48.04H1447.39V59H1445.55V56.96C1445.19 57.6 1444.65 58.1333 1443.93 58.56C1443.22 58.9733 1442.4 59.18 1441.45 59.18C1440.48 59.18 1439.6 58.94 1438.81 58.46C1438.02 57.98 1437.4 57.3067 1436.95 56.44C1436.5 55.5733 1436.27 54.5867 1436.27 53.48ZM1445.55 53.5C1445.55 52.6733 1445.38 51.9533 1445.05 51.34C1444.72 50.7267 1444.26 50.26 1443.69 49.94C1443.13 49.6067 1442.51 49.44 1441.83 49.44C1441.15 49.44 1440.53 49.6 1439.97 49.92C1439.41 50.24 1438.96 50.7067 1438.63 51.32C1438.3 51.9333 1438.13 52.6533 1438.13 53.48C1438.13 54.32 1438.3 55.0533 1438.63 55.68C1438.96 56.2933 1439.41 56.7667 1439.97 57.1C1440.53 57.42 1441.15 57.58 1441.83 57.58C1442.51 57.58 1443.13 57.42 1443.69 57.1C1444.26 56.7667 1444.72 56.2933 1445.05 55.68C1445.38 55.0533 1445.55 54.3267 1445.55 53.5Z" fill="black"/>
<path d="M1565.68 45.16V59H1563.86V48.68L1559.26 59H1557.98L1553.36 48.66V59H1551.54V45.16H1553.5L1558.62 56.6L1563.74 45.16H1565.68ZM1578.77 53.1C1578.77 53.4467 1578.75 53.8133 1578.71 54.2H1569.95C1570.01 55.28 1570.38 56.1267 1571.05 56.74C1571.73 57.34 1572.55 57.64 1573.51 57.64C1574.29 57.64 1574.95 57.46 1575.47 57.1C1576 56.7267 1576.37 56.2333 1576.59 55.62H1578.55C1578.25 56.6733 1577.67 57.5333 1576.79 58.2C1575.91 58.8533 1574.81 59.18 1573.51 59.18C1572.47 59.18 1571.53 58.9467 1570.71 58.48C1569.89 58.0133 1569.25 57.3533 1568.79 56.5C1568.32 55.6333 1568.09 54.6333 1568.09 53.5C1568.09 52.3667 1568.31 51.3733 1568.77 50.52C1569.22 49.6667 1569.85 49.0133 1570.67 48.56C1571.49 48.0933 1572.44 47.86 1573.51 47.86C1574.55 47.86 1575.47 48.0867 1576.27 48.54C1577.07 48.9933 1577.68 49.62 1578.11 50.42C1578.55 51.2067 1578.77 52.1 1578.77 53.1ZM1576.89 52.72C1576.89 52.0267 1576.73 51.4333 1576.43 50.94C1576.12 50.4333 1575.7 50.0533 1575.17 49.8C1574.65 49.5333 1574.07 49.4 1573.43 49.4C1572.51 49.4 1571.72 49.6933 1571.07 50.28C1570.43 50.8667 1570.06 51.68 1569.97 52.72H1576.89ZM1590.89 48.04V59H1589.07V57.38C1588.72 57.94 1588.24 58.38 1587.61 58.7C1587 59.0067 1586.32 59.16 1585.57 59.16C1584.72 59.16 1583.95 58.9867 1583.27 58.64C1582.59 58.28 1582.05 57.7467 1581.65 57.04C1581.26 56.3333 1581.07 55.4733 1581.07 54.46V48.04H1582.87V54.22C1582.87 55.3 1583.14 56.1333 1583.69 56.72C1584.24 57.2933 1584.98 57.58 1585.93 57.58C1586.9 57.58 1587.67 57.28 1588.23 56.68C1588.79 56.08 1589.07 55.2067 1589.07 54.06V48.04H1590.89ZM1601.11 50.06C1601.47 49.4333 1602.01 48.9133 1602.71 48.5C1603.43 48.0733 1604.27 47.86 1605.21 47.86C1606.19 47.86 1607.07 48.0933 1607.85 48.56C1608.65 49.0267 1609.28 49.6867 1609.73 50.54C1610.19 51.38 1610.41 52.36 1610.41 53.48C1610.41 54.5867 1610.19 55.5733 1609.73 56.44C1609.28 57.3067 1608.65 57.98 1607.85 58.46C1607.07 58.94 1606.19 59.18 1605.21 59.18C1604.28 59.18 1603.45 58.9733 1602.73 58.56C1602.03 58.1333 1601.49 57.6067 1601.11 56.98V64.2H1599.29V48.04H1601.11V50.06ZM1608.55 53.48C1608.55 52.6533 1608.39 51.9333 1608.05 51.32C1607.72 50.7067 1607.27 50.24 1606.69 49.92C1606.13 49.6 1605.51 49.44 1604.83 49.44C1604.17 49.44 1603.55 49.6067 1602.97 49.94C1602.41 50.26 1601.96 50.7333 1601.61 51.36C1601.28 51.9733 1601.11 52.6867 1601.11 53.5C1601.11 54.3267 1601.28 55.0533 1601.61 55.68C1601.96 56.2933 1602.41 56.7667 1602.97 57.1C1603.55 57.42 1604.17 57.58 1604.83 57.58C1605.51 57.58 1606.13 57.42 1606.69 57.1C1607.27 56.7667 1607.72 56.2933 1608.05 55.68C1608.39 55.0533 1608.55 54.32 1608.55 53.48ZM1622.81 53.1C1622.81 53.4467 1622.79 53.8133 1622.75 54.2H1613.99C1614.06 55.28 1614.42 56.1267 1615.09 56.74C1615.77 57.34 1616.59 57.64 1617.55 57.64C1618.34 57.64 1618.99 57.46 1619.51 57.1C1620.04 56.7267 1620.42 56.2333 1620.63 55.62H1622.59C1622.3 56.6733 1621.71 57.5333 1620.83 58.2C1619.95 58.8533 1618.86 59.18 1617.55 59.18C1616.51 59.18 1615.58 58.9467 1614.75 58.48C1613.94 58.0133 1613.3 57.3533 1612.83 56.5C1612.36 55.6333 1612.13 54.6333 1612.13 53.5C1612.13 52.3667 1612.36 51.3733 1612.81 50.52C1613.26 49.6667 1613.9 49.0133 1614.71 48.56C1615.54 48.0933 1616.48 47.86 1617.55 47.86C1618.59 47.86 1619.51 48.0867 1620.31 48.54C1621.11 48.9933 1621.72 49.62 1622.15 50.42C1622.59 51.2067 1622.81 52.1 1622.81 53.1ZM1620.93 52.72C1620.93 52.0267 1620.78 51.4333 1620.47 50.94C1620.16 50.4333 1619.74 50.0533 1619.21 49.8C1618.69 49.5333 1618.11 49.4 1617.47 49.4C1616.55 49.4 1615.76 49.6933 1615.11 50.28C1614.47 50.8667 1614.1 51.68 1614.01 52.72H1620.93ZM1627.03 49.82C1627.35 49.1933 1627.81 48.7067 1628.39 48.36C1628.99 48.0133 1629.72 47.84 1630.57 47.84V49.72H1630.09C1628.05 49.72 1627.03 50.8267 1627.03 53.04V59H1625.21V48.04H1627.03V49.82ZM1637.13 49.54H1634.83V59H1633.01V49.54H1631.59V48.04H1633.01V47.26C1633.01 46.0333 1633.33 45.14 1633.95 44.58C1634.59 44.0067 1635.61 43.72 1637.01 43.72V45.24C1636.21 45.24 1635.65 45.4 1635.31 45.72C1634.99 46.0267 1634.83 46.54 1634.83 47.26V48.04H1637.13V49.54ZM1640.19 46.26C1639.85 46.26 1639.55 46.14 1639.31 45.9C1639.07 45.66 1638.95 45.3667 1638.95 45.02C1638.95 44.6733 1639.07 44.38 1639.31 44.14C1639.55 43.9 1639.85 43.78 1640.19 43.78C1640.53 43.78 1640.81 43.9 1641.03 44.14C1641.27 44.38 1641.39 44.6733 1641.39 45.02C1641.39 45.3667 1641.27 45.66 1641.03 45.9C1640.81 46.14 1640.53 46.26 1640.19 46.26ZM1641.07 48.04V59H1639.25V48.04H1641.07ZM1646 44.2V59H1644.18V44.2H1646Z" fill="black"/>
<path d="M1526 36C1517.17 36 1510 43.168 1510 52C1510 60.832 1517.17 68 1526 68C1534.83 68 1542 60.832 1542 52C1542 43.168 1534.83 36 1526 36ZM1518.11 62.048C1518.8 60.608 1522.99 59.2 1526 59.2C1529.01 59.2 1533.22 60.608 1533.89 62.048C1531.71 63.776 1528.98 64.8 1526 64.8C1523.02 64.8 1520.29 63.776 1518.11 62.048ZM1536.18 59.728C1533.89 56.944 1528.34 56 1526 56C1523.66 56 1518.11 56.944 1515.82 59.728C1514.19 57.584 1513.2 54.912 1513.2 52C1513.2 44.944 1518.94 39.2 1526 39.2C1533.06 39.2 1538.8 44.944 1538.8 52C1538.8 54.912 1537.81 57.584 1536.18 59.728ZM1526 42.4C1522.9 42.4 1520.4 44.896 1520.4 48C1520.4 51.104 1522.9 53.6 1526 53.6C1529.1 53.6 1531.6 51.104 1531.6 48C1531.6 44.896 1529.1 42.4 1526 42.4ZM1526 50.4C1524.67 50.4 1523.6 49.328 1523.6 48C1523.6 46.672 1524.67 45.6 1526 45.6C1527.33 45.6 1528.4 46.672 1528.4 48C1528.4 49.328 1527.33 50.4 1526 50.4Z" fill="#002F52"/>
<defs>
<linearGradient id="paint0_linear_113_1797" x1="96" y1="32" x2="96" y2="72" gradientUnits="userSpaceOnUse">
<stop offset="0.677083" stop-color="#FD8325"/>
<stop offset="1" stop-color="#FC6621"/>
</linearGradient>
<clipPath id="clip0_113_1797">
<rect width="38" height="38" fill="white" transform="translate(1273 33)"/>
</clipPath>
</defs>
</svg>
