<svg width="773" height="104" viewBox="0 0 773 104" fill="none" xmlns="http://www.w3.org/2000/svg">
<rect width="130" height="104" transform="translate(-4)" fill="white"/>
<path d="M96.0001 33.7179L112.149 67.884H79.8516L96.0001 33.7179Z" fill="#FECD2F"/>
<path fill-rule="evenodd" clip-rule="evenodd" d="M86.4602 63.7672H105.54L96 43.5835L86.4602 63.7672ZM76 66.1661L92.1486 32H99.8514L116 66.1661L112.149 72H79.8514L76 66.1661Z" fill="url(#paint0_linear_113_1797)"/>
<path d="M127.36 65L137.32 42.05H137.56L147.52 65H142.48L136.12 48.86L139.27 46.7L131.65 65H127.36ZM134.17 57.02H140.8L142.33 60.68H132.82L134.17 57.02ZM150.049 41.33H154.249V65H150.049V41.33ZM162.804 65.63C161.624 65.63 160.634 65.27 159.834 64.55C159.034 63.81 158.614 62.86 158.574 61.7V51.89H162.774V60.14C162.814 60.72 162.964 61.19 163.224 61.55C163.484 61.89 163.924 62.06 164.544 62.06C165.164 62.06 165.694 61.85 166.134 61.43C166.594 61.01 166.944 60.44 167.184 59.72C167.444 58.98 167.574 58.15 167.574 57.23V51.89H171.774V65H167.964L167.634 62.6L167.694 62.87C167.394 63.41 167.014 63.89 166.554 64.31C166.094 64.73 165.544 65.05 164.904 65.27C164.284 65.51 163.584 65.63 162.804 65.63ZM179.874 51.89L180.264 55.49L180.174 54.95C180.554 54.17 181.074 53.51 181.734 52.97C182.394 52.41 183.044 51.98 183.684 51.68C184.344 51.38 184.844 51.23 185.184 51.23L184.974 55.43C183.994 55.31 183.154 55.47 182.454 55.91C181.754 56.35 181.214 56.93 180.834 57.65C180.454 58.37 180.264 59.11 180.264 59.87V65H176.094V51.89H179.874ZM193.479 65.36C192.259 65.36 191.149 65.12 190.149 64.64C189.169 64.14 188.389 63.38 187.809 62.36C187.229 61.34 186.939 60.04 186.939 58.46C186.939 56.98 187.239 55.7 187.839 54.62C188.439 53.54 189.229 52.71 190.209 52.13C191.189 51.53 192.229 51.23 193.329 51.23C194.629 51.23 195.609 51.45 196.269 51.89C196.949 52.31 197.509 52.78 197.949 53.3L197.769 53.81L198.159 51.89H202.059V65H197.859V62.15L198.189 63.05C198.149 63.05 198.029 63.17 197.829 63.41C197.629 63.63 197.329 63.9 196.929 64.22C196.549 64.52 196.069 64.78 195.489 65C194.929 65.24 194.259 65.36 193.479 65.36ZM194.679 61.94C195.179 61.94 195.629 61.87 196.029 61.73C196.429 61.57 196.779 61.35 197.079 61.07C197.379 60.77 197.639 60.4 197.859 59.96V56.75C197.699 56.31 197.459 55.94 197.139 55.64C196.819 55.32 196.439 55.08 195.999 54.92C195.559 54.74 195.069 54.65 194.529 54.65C193.929 54.65 193.369 54.81 192.849 55.13C192.349 55.43 191.949 55.85 191.649 56.39C191.349 56.93 191.199 57.55 191.199 58.25C191.199 58.95 191.359 59.58 191.679 60.14C191.999 60.7 192.419 61.14 192.939 61.46C193.479 61.78 194.059 61.94 194.679 61.94ZM212.927 43.31C215.107 43.31 216.817 43.76 218.057 44.66C219.317 45.54 219.947 46.92 219.947 48.8C219.947 49.94 219.687 50.93 219.167 51.77C218.647 52.61 217.917 53.27 216.977 53.75C216.057 54.23 214.967 54.5 213.707 54.56L213.287 53.06C214.747 53.1 216.057 53.36 217.217 53.84C218.377 54.32 219.297 54.99 219.977 55.85C220.657 56.71 220.997 57.73 220.997 58.91C220.997 59.99 220.797 60.92 220.397 61.7C219.997 62.46 219.457 63.09 218.777 63.59C218.097 64.07 217.327 64.43 216.467 64.67C215.607 64.89 214.717 65 213.797 65H207.347V43.31H212.927ZM213.527 52.82C214.727 52.82 215.597 52.49 216.137 51.83C216.677 51.15 216.947 50.33 216.947 49.37C216.947 48.23 216.597 47.4 215.897 46.88C215.197 46.36 214.257 46.1 213.077 46.1H210.257V52.82H213.527ZM213.647 62.3C214.447 62.3 215.177 62.18 215.837 61.94C216.517 61.7 217.047 61.33 217.427 60.83C217.827 60.33 218.027 59.7 218.027 58.94C218.027 58.1 217.797 57.44 217.337 56.96C216.897 56.48 216.327 56.14 215.627 55.94C214.927 55.72 214.207 55.61 213.467 55.61H210.257V62.3H213.647ZM224.121 58.67C224.121 57.43 224.411 56.31 224.991 55.31C225.591 54.31 226.411 53.52 227.451 52.94C228.491 52.36 229.671 52.07 230.991 52.07C232.351 52.07 233.541 52.36 234.561 52.94C235.581 53.52 236.371 54.31 236.931 55.31C237.491 56.31 237.771 57.43 237.771 58.67C237.771 59.91 237.491 61.04 236.931 62.06C236.371 63.06 235.571 63.85 234.531 64.43C233.511 65.01 232.321 65.3 230.961 65.3C229.641 65.3 228.461 65.03 227.421 64.49C226.401 63.93 225.591 63.16 224.991 62.18C224.411 61.18 224.121 60.01 224.121 58.67ZM226.911 58.7C226.911 59.5 227.091 60.23 227.451 60.89C227.811 61.53 228.291 62.04 228.891 62.42C229.511 62.8 230.191 62.99 230.931 62.99C231.711 62.99 232.401 62.8 233.001 62.42C233.621 62.04 234.101 61.53 234.441 60.89C234.781 60.23 234.951 59.5 234.951 58.7C234.951 57.9 234.781 57.18 234.441 56.54C234.101 55.88 233.621 55.36 233.001 54.98C232.401 54.58 231.711 54.38 230.931 54.38C230.171 54.38 229.481 54.58 228.861 54.98C228.261 55.38 227.781 55.91 227.421 56.57C227.081 57.21 226.911 57.92 226.911 58.7ZM240.469 58.67C240.469 57.43 240.759 56.31 241.339 55.31C241.939 54.31 242.759 53.52 243.799 52.94C244.839 52.36 246.019 52.07 247.339 52.07C248.699 52.07 249.889 52.36 250.909 52.94C251.929 53.52 252.719 54.31 253.279 55.31C253.839 56.31 254.119 57.43 254.119 58.67C254.119 59.91 253.839 61.04 253.279 62.06C252.719 63.06 251.919 63.85 250.879 64.43C249.859 65.01 248.669 65.3 247.309 65.3C245.989 65.3 244.809 65.03 243.769 64.49C242.749 63.93 241.939 63.16 241.339 62.18C240.759 61.18 240.469 60.01 240.469 58.67ZM243.259 58.7C243.259 59.5 243.439 60.23 243.799 60.89C244.159 61.53 244.639 62.04 245.239 62.42C245.859 62.8 246.539 62.99 247.279 62.99C248.059 62.99 248.749 62.8 249.349 62.42C249.969 62.04 250.449 61.53 250.789 60.89C251.129 60.23 251.299 59.5 251.299 58.7C251.299 57.9 251.129 57.18 250.789 56.54C250.449 55.88 249.969 55.36 249.349 54.98C248.749 54.58 248.059 54.38 247.279 54.38C246.519 54.38 245.829 54.58 245.209 54.98C244.609 55.38 244.129 55.91 243.769 56.57C243.429 57.21 243.259 57.92 243.259 58.7ZM257.897 65V41.78H260.687V65H257.897ZM263.687 56.75L269.387 65H266.117L261.827 58.31L263.687 56.75ZM259.817 61.04L259.547 58.37L267.077 52.31L268.787 53.78L259.817 61.04ZM276.318 65.24C275.438 65.24 274.578 65.09 273.738 64.79C272.918 64.47 272.238 64 271.698 63.38L272.868 61.76C273.388 62.26 273.918 62.64 274.458 62.9C275.018 63.14 275.568 63.26 276.108 63.26C276.508 63.26 276.878 63.21 277.218 63.11C277.558 63.01 277.828 62.85 278.028 62.63C278.248 62.39 278.358 62.07 278.358 61.67C278.358 61.23 278.208 60.88 277.908 60.62C277.628 60.36 277.258 60.15 276.798 59.99C276.358 59.83 275.888 59.68 275.388 59.54C274.368 59.2 273.588 58.73 273.048 58.13C272.508 57.53 272.238 56.8 272.238 55.94C272.238 55.28 272.398 54.67 272.718 54.11C273.058 53.53 273.548 53.06 274.188 52.7C274.848 52.34 275.658 52.16 276.618 52.16C277.478 52.16 278.248 52.27 278.928 52.49C279.608 52.69 280.248 53.03 280.848 53.51L279.738 55.25C279.378 54.87 278.948 54.59 278.448 54.41C277.948 54.23 277.498 54.13 277.098 54.11C276.758 54.09 276.428 54.14 276.108 54.26C275.808 54.38 275.558 54.55 275.358 54.77C275.158 54.99 275.058 55.25 275.058 55.55C275.058 55.97 275.198 56.31 275.478 56.57C275.758 56.83 276.118 57.04 276.558 57.2C277.018 57.34 277.468 57.49 277.908 57.65C278.528 57.83 279.078 58.07 279.558 58.37C280.038 58.67 280.418 59.04 280.698 59.48C280.998 59.92 281.148 60.47 281.148 61.13C281.148 61.87 280.968 62.56 280.608 63.2C280.268 63.82 279.738 64.32 279.018 64.7C278.318 65.06 277.418 65.24 276.318 65.24Z" fill="black"/>
<path d="M350.688 52.416C350.688 51.328 350.933 50.352 351.424 49.488C351.915 48.6133 352.581 47.9307 353.424 47.44C354.277 46.9493 355.221 46.704 356.256 46.704C357.472 46.704 358.533 46.9973 359.44 47.584C360.347 48.1707 361.008 49.0027 361.424 50.08H359.68C359.371 49.408 358.923 48.8907 358.336 48.528C357.76 48.1653 357.067 47.984 356.256 47.984C355.477 47.984 354.779 48.1653 354.16 48.528C353.541 48.8907 353.056 49.408 352.704 50.08C352.352 50.7413 352.176 51.52 352.176 52.416C352.176 53.3013 352.352 54.08 352.704 54.752C353.056 55.4133 353.541 55.9253 354.16 56.288C354.779 56.6507 355.477 56.832 356.256 56.832C357.067 56.832 357.76 56.656 358.336 56.304C358.923 55.9413 359.371 55.424 359.68 54.752H361.424C361.008 55.8187 360.347 56.6453 359.44 57.232C358.533 57.808 357.472 58.096 356.256 58.096C355.221 58.096 354.277 57.856 353.424 57.376C352.581 56.8853 351.915 56.208 351.424 55.344C350.933 54.48 350.688 53.504 350.688 52.416ZM370.183 55.52H365.319L364.423 58H362.887L366.919 46.912H368.599L372.615 58H371.079L370.183 55.52ZM369.767 54.336L367.751 48.704L365.735 54.336H369.767ZM381.237 46.848V48.032H378.197V58H376.741V48.032H373.685V46.848H381.237ZM384.485 48.032V51.76H388.549V52.96H384.485V56.8H389.029V58H383.029V46.832H389.029V48.032H384.485ZM399.68 50.08C399.371 49.4293 398.923 48.928 398.336 48.576C397.749 48.2133 397.067 48.032 396.288 48.032C395.509 48.032 394.805 48.2133 394.176 48.576C393.557 48.928 393.067 49.44 392.704 50.112C392.352 50.7733 392.176 51.5413 392.176 52.416C392.176 53.2907 392.352 54.0587 392.704 54.72C393.067 55.3813 393.557 55.8933 394.176 56.256C394.805 56.608 395.509 56.784 396.288 56.784C397.376 56.784 398.272 56.4587 398.976 55.808C399.68 55.1573 400.091 54.2773 400.208 53.168H395.76V51.984H401.76V53.104C401.675 54.0213 401.387 54.864 400.896 55.632C400.405 56.3893 399.76 56.992 398.96 57.44C398.16 57.8773 397.269 58.096 396.288 58.096C395.253 58.096 394.309 57.856 393.456 57.376C392.603 56.8853 391.925 56.208 391.424 55.344C390.933 54.48 390.688 53.504 390.688 52.416C390.688 51.328 390.933 50.352 391.424 49.488C391.925 48.6133 392.603 47.936 393.456 47.456C394.309 46.9653 395.253 46.72 396.288 46.72C397.472 46.72 398.517 47.0133 399.424 47.6C400.341 48.1867 401.008 49.0133 401.424 50.08H399.68ZM408.741 58.112C407.706 58.112 406.762 57.872 405.909 57.392C405.056 56.9013 404.378 56.224 403.877 55.36C403.386 54.4853 403.141 53.504 403.141 52.416C403.141 51.328 403.386 50.352 403.877 49.488C404.378 48.6133 405.056 47.936 405.909 47.456C406.762 46.9653 407.706 46.72 408.741 46.72C409.786 46.72 410.736 46.9653 411.589 47.456C412.442 47.936 413.114 48.608 413.605 49.472C414.096 50.336 414.341 51.3173 414.341 52.416C414.341 53.5147 414.096 54.496 413.605 55.36C413.114 56.224 412.442 56.9013 411.589 57.392C410.736 57.872 409.786 58.112 408.741 58.112ZM408.741 56.848C409.52 56.848 410.218 56.6667 410.837 56.304C411.466 55.9413 411.957 55.424 412.309 54.752C412.672 54.08 412.853 53.3013 412.853 52.416C412.853 51.52 412.672 50.7413 412.309 50.08C411.957 49.408 411.472 48.8907 410.853 48.528C410.234 48.1653 409.53 47.984 408.741 47.984C407.952 47.984 407.248 48.1653 406.629 48.528C406.01 48.8907 405.52 49.408 405.157 50.08C404.805 50.7413 404.629 51.52 404.629 52.416C404.629 53.3013 404.805 54.08 405.157 54.752C405.52 55.424 406.01 55.9413 406.629 56.304C407.258 56.6667 407.962 56.848 408.741 56.848ZM422.135 58L419.479 53.44H417.719V58H416.263V46.848H419.863C420.706 46.848 421.415 46.992 421.991 47.28C422.578 47.568 423.015 47.9573 423.303 48.448C423.591 48.9387 423.735 49.4987 423.735 50.128C423.735 50.896 423.511 51.5733 423.063 52.16C422.626 52.7467 421.965 53.136 421.079 53.328L423.879 58H422.135ZM417.719 52.272H419.863C420.653 52.272 421.245 52.08 421.639 51.696C422.034 51.3013 422.231 50.7787 422.231 50.128C422.231 49.4667 422.034 48.9547 421.639 48.592C421.255 48.2293 420.663 48.048 419.863 48.048H417.719V52.272ZM427.454 46.848V58H425.998V46.848H427.454ZM436.527 55.52H431.663L430.767 58H429.231L433.263 46.912H434.943L438.959 58H437.423L436.527 55.52ZM436.111 54.336L434.095 48.704L432.079 54.336H436.111ZM444.252 58.112C443.516 58.112 442.855 57.984 442.268 57.728C441.692 57.4613 441.239 57.0987 440.908 56.64C440.578 56.1707 440.407 55.632 440.396 55.024H441.948C442.002 55.5467 442.215 55.9893 442.588 56.352C442.972 56.704 443.527 56.88 444.252 56.88C444.946 56.88 445.49 56.7093 445.884 56.368C446.29 56.016 446.492 55.568 446.492 55.024C446.492 54.5973 446.375 54.2507 446.14 53.984C445.906 53.7173 445.612 53.5147 445.26 53.376C444.908 53.2373 444.434 53.088 443.836 52.928C443.1 52.736 442.508 52.544 442.06 52.352C441.623 52.16 441.244 51.8613 440.924 51.456C440.615 51.04 440.46 50.4853 440.46 49.792C440.46 49.184 440.615 48.6453 440.924 48.176C441.234 47.7067 441.666 47.344 442.22 47.088C442.786 46.832 443.431 46.704 444.156 46.704C445.202 46.704 446.055 46.9653 446.716 47.488C447.388 48.0107 447.767 48.704 447.852 49.568H446.252C446.199 49.1413 445.975 48.768 445.58 48.448C445.186 48.1173 444.663 47.952 444.012 47.952C443.404 47.952 442.908 48.112 442.524 48.432C442.14 48.7413 441.948 49.1787 441.948 49.744C441.948 50.1493 442.06 50.48 442.284 50.736C442.519 50.992 442.802 51.1893 443.132 51.328C443.474 51.456 443.948 51.6053 444.556 51.776C445.292 51.9787 445.884 52.1813 446.332 52.384C446.78 52.576 447.164 52.88 447.484 53.296C447.804 53.7013 447.964 54.256 447.964 54.96C447.964 55.504 447.82 56.016 447.532 56.496C447.244 56.976 446.818 57.3653 446.252 57.664C445.687 57.9627 445.02 58.112 444.252 58.112Z" fill="black"/>
<path d="M498.536 46.848V48.032H493.688V51.792H497.624V52.976H493.688V58H492.232V46.848H498.536ZM506.887 55.52H502.023L501.127 58H499.59L503.623 46.912H505.303L509.319 58H507.783L506.887 55.52ZM506.471 54.336L504.455 48.704L502.439 54.336H506.471ZM520.292 46.848L516.084 58H514.404L510.196 46.848H511.748L515.252 56.464L518.756 46.848H520.292ZM526.944 58.112C525.91 58.112 524.966 57.872 524.112 57.392C523.259 56.9013 522.582 56.224 522.08 55.36C521.59 54.4853 521.344 53.504 521.344 52.416C521.344 51.328 521.59 50.352 522.08 49.488C522.582 48.6133 523.259 47.936 524.112 47.456C524.966 46.9653 525.91 46.72 526.944 46.72C527.99 46.72 528.939 46.9653 529.792 47.456C530.646 47.936 531.318 48.608 531.808 49.472C532.299 50.336 532.544 51.3173 532.544 52.416C532.544 53.5147 532.299 54.496 531.808 55.36C531.318 56.224 530.646 56.9013 529.792 57.392C528.939 57.872 527.99 58.112 526.944 58.112ZM526.944 56.848C527.723 56.848 528.422 56.6667 529.04 56.304C529.67 55.9413 530.16 55.424 530.512 54.752C530.875 54.08 531.056 53.3013 531.056 52.416C531.056 51.52 530.875 50.7413 530.512 50.08C530.16 49.408 529.675 48.8907 529.056 48.528C528.438 48.1653 527.734 47.984 526.944 47.984C526.155 47.984 525.451 48.1653 524.832 48.528C524.214 48.8907 523.723 49.408 523.36 50.08C523.008 50.7413 522.832 51.52 522.832 52.416C522.832 53.3013 523.008 54.08 523.36 54.752C523.723 55.424 524.214 55.9413 524.832 56.304C525.462 56.6667 526.166 56.848 526.944 56.848ZM540.338 58L537.682 53.44H535.922V58H534.466V46.848H538.066C538.909 46.848 539.618 46.992 540.194 47.28C540.781 47.568 541.218 47.9573 541.506 48.448C541.794 48.9387 541.938 49.4987 541.938 50.128C541.938 50.896 541.714 51.5733 541.266 52.16C540.829 52.7467 540.168 53.136 539.282 53.328L542.082 58H540.338ZM535.922 52.272H538.066C538.856 52.272 539.448 52.08 539.842 51.696C540.237 51.3013 540.434 50.7787 540.434 50.128C540.434 49.4667 540.237 48.9547 539.842 48.592C539.458 48.2293 538.866 48.048 538.066 48.048H535.922V52.272ZM545.657 46.848V58H544.201V46.848H545.657ZM555.002 46.848V48.032H551.962V58H550.506V48.032H547.45V46.848H555.002ZM561.851 58.112C560.816 58.112 559.872 57.872 559.019 57.392C558.165 56.9013 557.488 56.224 556.987 55.36C556.496 54.4853 556.251 53.504 556.251 52.416C556.251 51.328 556.496 50.352 556.987 49.488C557.488 48.6133 558.165 47.936 559.019 47.456C559.872 46.9653 560.816 46.72 561.851 46.72C562.896 46.72 563.845 46.9653 564.699 47.456C565.552 47.936 566.224 48.608 566.715 49.472C567.205 50.336 567.451 51.3173 567.451 52.416C567.451 53.5147 567.205 54.496 566.715 55.36C566.224 56.224 565.552 56.9013 564.699 57.392C563.845 57.872 562.896 58.112 561.851 58.112ZM561.851 56.848C562.629 56.848 563.328 56.6667 563.947 56.304C564.576 55.9413 565.067 55.424 565.419 54.752C565.781 54.08 565.963 53.3013 565.963 52.416C565.963 51.52 565.781 50.7413 565.419 50.08C565.067 49.408 564.581 48.8907 563.963 48.528C563.344 48.1653 562.64 47.984 561.851 47.984C561.061 47.984 560.357 48.1653 559.739 48.528C559.12 48.8907 558.629 49.408 558.267 50.08C557.915 50.7413 557.739 51.52 557.739 52.416C557.739 53.3013 557.915 54.08 558.267 54.752C558.629 55.424 559.12 55.9413 559.739 56.304C560.368 56.6667 561.072 56.848 561.851 56.848ZM572.909 58.112C572.173 58.112 571.511 57.984 570.925 57.728C570.349 57.4613 569.895 57.0987 569.565 56.64C569.234 56.1707 569.063 55.632 569.053 55.024H570.605C570.658 55.5467 570.871 55.9893 571.245 56.352C571.629 56.704 572.183 56.88 572.909 56.88C573.602 56.88 574.146 56.7093 574.541 56.368C574.946 56.016 575.149 55.568 575.149 55.024C575.149 54.5973 575.031 54.2507 574.797 53.984C574.562 53.7173 574.269 53.5147 573.917 53.376C573.565 53.2373 573.09 53.088 572.493 52.928C571.757 52.736 571.165 52.544 570.717 52.352C570.279 52.16 569.901 51.8613 569.581 51.456C569.271 51.04 569.117 50.4853 569.117 49.792C569.117 49.184 569.271 48.6453 569.581 48.176C569.89 47.7067 570.322 47.344 570.877 47.088C571.442 46.832 572.087 46.704 572.813 46.704C573.858 46.704 574.711 46.9653 575.373 47.488C576.045 48.0107 576.423 48.704 576.509 49.568H574.909C574.855 49.1413 574.631 48.768 574.237 48.448C573.842 48.1173 573.319 47.952 572.669 47.952C572.061 47.952 571.565 48.112 571.181 48.432C570.797 48.7413 570.605 49.1787 570.605 49.744C570.605 50.1493 570.717 50.48 570.941 50.736C571.175 50.992 571.458 51.1893 571.789 51.328C572.13 51.456 572.605 51.6053 573.213 51.776C573.949 51.9787 574.541 52.1813 574.989 52.384C575.437 52.576 575.821 52.88 576.141 53.296C576.461 53.7013 576.621 54.256 576.621 54.96C576.621 55.504 576.477 56.016 576.189 56.496C575.901 56.976 575.474 57.3653 574.909 57.664C574.343 57.9627 573.677 58.112 572.909 58.112Z" fill="black"/>
<path d="M632.544 46.928V58H631.088V49.744L627.408 58H626.384L622.688 49.728V58H621.232V46.928H622.8L626.896 56.08L630.992 46.928H632.544ZM636.469 46.848V58H635.013V46.848H636.469ZM647.719 58H646.263L640.407 49.12V58H638.951V46.832H640.407L646.263 55.696V46.832H647.719V58ZM658.793 46.848V58H657.337V52.944H651.657V58H650.201V46.848H651.657V51.744H657.337V46.848H658.793ZM667.871 55.52H663.007L662.111 58H660.575L664.607 46.912H666.287L670.303 58H668.767L667.871 55.52ZM667.455 54.336L665.439 48.704L663.423 54.336H667.455ZM677.782 48.032V51.76H681.846V52.96H677.782V56.8H682.326V58H676.326V46.832H682.326V48.032H677.782ZM688.065 58.112C687.329 58.112 686.668 57.984 686.081 57.728C685.505 57.4613 685.052 57.0987 684.721 56.64C684.39 56.1707 684.22 55.632 684.209 55.024H685.761C685.814 55.5467 686.028 55.9893 686.401 56.352C686.785 56.704 687.34 56.88 688.065 56.88C688.758 56.88 689.302 56.7093 689.697 56.368C690.102 56.016 690.305 55.568 690.305 55.024C690.305 54.5973 690.188 54.2507 689.953 53.984C689.718 53.7173 689.425 53.5147 689.073 53.376C688.721 53.2373 688.246 53.088 687.649 52.928C686.913 52.736 686.321 52.544 685.873 52.352C685.436 52.16 685.057 51.8613 684.737 51.456C684.428 51.04 684.273 50.4853 684.273 49.792C684.273 49.184 684.428 48.6453 684.737 48.176C685.046 47.7067 685.478 47.344 686.033 47.088C686.598 46.832 687.244 46.704 687.969 46.704C689.014 46.704 689.868 46.9653 690.529 47.488C691.201 48.0107 691.58 48.704 691.665 49.568H690.065C690.012 49.1413 689.788 48.768 689.393 48.448C688.998 48.1173 688.476 47.952 687.825 47.952C687.217 47.952 686.721 48.112 686.337 48.432C685.953 48.7413 685.761 49.1787 685.761 49.744C685.761 50.1493 685.873 50.48 686.097 50.736C686.332 50.992 686.614 51.1893 686.945 51.328C687.286 51.456 687.761 51.6053 688.369 51.776C689.105 51.9787 689.697 52.1813 690.145 52.384C690.593 52.576 690.977 52.88 691.297 53.296C691.617 53.7013 691.777 54.256 691.777 54.96C691.777 55.504 691.633 56.016 691.345 56.496C691.057 56.976 690.63 57.3653 690.065 57.664C689.5 57.9627 688.833 58.112 688.065 58.112ZM700.784 46.848V48.032H697.744V58H696.288V48.032H693.232V46.848H700.784ZM709.168 55.52H704.304L703.408 58H701.872L705.904 46.912H707.584L711.6 58H710.064L709.168 55.52ZM708.752 54.336L706.736 48.704L704.72 54.336H708.752ZM722.125 58H720.669L714.813 49.12V58H713.357V46.832H714.813L720.669 55.696V46.832H722.125V58ZM731.471 46.848V48.032H728.431V58H726.975V48.032H723.919V46.848H731.471ZM734.719 48.032V51.76H738.783V52.96H734.719V56.8H739.263V58H733.263V46.832H739.263V48.032H734.719Z" fill="black"/>
<g clip-path="url(#clip0_113_1797)">
<path d="M401.5 42.5H398.333C398.333 39.0008 395.499 36.1666 392 36.1666C388.501 36.1666 385.666 39.0008 385.666 42.5H382.5C380.758 42.5 379.333 43.925 379.333 45.6666V64.6666C379.333 66.4083 380.758 67.8333 382.5 67.8333H401.5C403.241 67.8333 404.666 66.4083 404.666 64.6666V45.6666C404.666 43.925 403.241 42.5 401.5 42.5ZM392 39.3333C393.741 39.3333 395.166 40.7583 395.166 42.5H388.833C388.833 40.7583 390.258 39.3333 392 39.3333ZM401.5 64.6666H382.5V45.6666H385.666V48.8333C385.666 49.7041 386.379 50.4166 387.25 50.4166C388.121 50.4166 388.833 49.7041 388.833 48.8333V45.6666H395.166V48.8333C395.166 49.7041 395.879 50.4166 396.75 50.4166C397.621 50.4166 398.333 49.7041 398.333 48.8333V45.6666H401.5V64.6666Z" fill="#002F52"/>
</g>
<path d="M430.68 45.16V59H428.86V48.68L424.26 59H422.98L418.36 48.66V59H416.54V45.16H418.5L423.62 56.6L428.74 45.16H430.68ZM434.707 46.26C434.36 46.26 434.067 46.14 433.827 45.9C433.587 45.66 433.467 45.3667 433.467 45.02C433.467 44.6733 433.587 44.38 433.827 44.14C434.067 43.9 434.36 43.78 434.707 43.78C435.04 43.78 435.32 43.9 435.547 44.14C435.787 44.38 435.907 44.6733 435.907 45.02C435.907 45.3667 435.787 45.66 435.547 45.9C435.32 46.14 435.04 46.26 434.707 46.26ZM435.587 48.04V59H433.767V48.04H435.587ZM444.028 47.84C445.362 47.84 446.442 48.2467 447.268 49.06C448.095 49.86 448.508 51.02 448.508 52.54V59H446.708V52.8C446.708 51.7067 446.435 50.8733 445.888 50.3C445.342 49.7133 444.595 49.42 443.648 49.42C442.688 49.42 441.922 49.72 441.348 50.32C440.788 50.92 440.508 51.7933 440.508 52.94V59H438.688V48.04H440.508V49.6C440.868 49.04 441.355 48.6067 441.968 48.3C442.595 47.9933 443.282 47.84 444.028 47.84ZM456.921 47.84C457.748 47.84 458.495 48.02 459.161 48.38C459.828 48.7267 460.348 49.2533 460.721 49.96C461.108 50.6667 461.301 51.5267 461.301 52.54V59H459.501V52.8C459.501 51.7067 459.228 50.8733 458.681 50.3C458.135 49.7133 457.388 49.42 456.441 49.42C455.481 49.42 454.715 49.72 454.141 50.32C453.581 50.92 453.301 51.7933 453.301 52.94V59H451.481V44.2H453.301V49.6C453.661 49.04 454.155 48.6067 454.781 48.3C455.421 47.9933 456.135 47.84 456.921 47.84ZM463.594 53.48C463.594 52.36 463.821 51.38 464.274 50.54C464.728 49.6867 465.348 49.0267 466.134 48.56C466.934 48.0933 467.821 47.86 468.794 47.86C469.754 47.86 470.588 48.0667 471.294 48.48C472.001 48.8933 472.528 49.4133 472.874 50.04V48.04H474.714V59H472.874V56.96C472.514 57.6 471.974 58.1333 471.254 58.56C470.548 58.9733 469.721 59.18 468.774 59.18C467.801 59.18 466.921 58.94 466.134 58.46C465.348 57.98 464.728 57.3067 464.274 56.44C463.821 55.5733 463.594 54.5867 463.594 53.48ZM472.874 53.5C472.874 52.6733 472.708 51.9533 472.374 51.34C472.041 50.7267 471.588 50.26 471.014 49.94C470.454 49.6067 469.834 49.44 469.154 49.44C468.474 49.44 467.854 49.6 467.294 49.92C466.734 50.24 466.288 50.7067 465.954 51.32C465.621 51.9333 465.454 52.6533 465.454 53.48C465.454 54.32 465.621 55.0533 465.954 55.68C466.288 56.2933 466.734 56.7667 467.294 57.1C467.854 57.42 468.474 57.58 469.154 57.58C469.834 57.58 470.454 57.42 471.014 57.1C471.588 56.7667 472.041 56.2933 472.374 55.68C472.708 55.0533 472.874 54.3267 472.874 53.5ZM487.002 59.18C486.162 59.18 485.409 59.04 484.742 58.76C484.075 58.4667 483.549 58.0667 483.162 57.56C482.775 57.04 482.562 56.4467 482.522 55.78H484.402C484.455 56.3267 484.709 56.7733 485.162 57.12C485.629 57.4667 486.235 57.64 486.982 57.64C487.675 57.64 488.222 57.4867 488.622 57.18C489.022 56.8733 489.222 56.4867 489.222 56.02C489.222 55.54 489.009 55.1867 488.582 54.96C488.155 54.72 487.495 54.4867 486.602 54.26C485.789 54.0467 485.122 53.8333 484.602 53.62C484.095 53.3933 483.655 53.0667 483.282 52.64C482.922 52.2 482.742 51.6267 482.742 50.92C482.742 50.36 482.909 49.8467 483.242 49.38C483.575 48.9133 484.049 48.5467 484.662 48.28C485.275 48 485.975 47.86 486.762 47.86C487.975 47.86 488.955 48.1667 489.702 48.78C490.449 49.3933 490.849 50.2333 490.902 51.3H489.082C489.042 50.7267 488.809 50.2667 488.382 49.92C487.969 49.5733 487.409 49.4 486.702 49.4C486.049 49.4 485.529 49.54 485.142 49.82C484.755 50.1 484.562 50.4667 484.562 50.92C484.562 51.28 484.675 51.58 484.902 51.82C485.142 52.0467 485.435 52.2333 485.782 52.38C486.142 52.5133 486.635 52.6667 487.262 52.84C488.049 53.0533 488.689 53.2667 489.182 53.48C489.675 53.68 490.095 53.9867 490.442 54.4C490.802 54.8133 490.989 55.3533 491.002 56.02C491.002 56.62 490.835 57.16 490.502 57.64C490.169 58.12 489.695 58.5 489.082 58.78C488.482 59.0467 487.789 59.18 487.002 59.18ZM492.891 53.48C492.891 52.36 493.118 51.38 493.571 50.54C494.025 49.6867 494.645 49.0267 495.431 48.56C496.231 48.0933 497.118 47.86 498.091 47.86C499.051 47.86 499.885 48.0667 500.591 48.48C501.298 48.8933 501.825 49.4133 502.171 50.04V48.04H504.011V59H502.171V56.96C501.811 57.6 501.271 58.1333 500.551 58.56C499.845 58.9733 499.018 59.18 498.071 59.18C497.098 59.18 496.218 58.94 495.431 58.46C494.645 57.98 494.025 57.3067 493.571 56.44C493.118 55.5733 492.891 54.5867 492.891 53.48ZM502.171 53.5C502.171 52.6733 502.005 51.9533 501.671 51.34C501.338 50.7267 500.885 50.26 500.311 49.94C499.751 49.6067 499.131 49.44 498.451 49.44C497.771 49.44 497.151 49.6 496.591 49.92C496.031 50.24 495.585 50.7067 495.251 51.32C494.918 51.9333 494.751 52.6533 494.751 53.48C494.751 54.32 494.918 55.0533 495.251 55.68C495.585 56.2933 496.031 56.7667 496.591 57.1C497.151 57.42 497.771 57.58 498.451 57.58C499.131 57.58 499.751 57.42 500.311 57.1C500.885 56.7667 501.338 56.2933 501.671 55.68C502.005 55.0533 502.171 54.3267 502.171 53.5ZM506.407 53.5C506.407 52.3667 506.634 51.38 507.087 50.54C507.54 49.6867 508.167 49.0267 508.967 48.56C509.78 48.0933 510.707 47.86 511.747 47.86C513.094 47.86 514.2 48.1867 515.067 48.84C515.947 49.4933 516.527 50.4 516.807 51.56H514.847C514.66 50.8933 514.294 50.3667 513.747 49.98C513.214 49.5933 512.547 49.4 511.747 49.4C510.707 49.4 509.867 49.76 509.227 50.48C508.587 51.1867 508.267 52.1933 508.267 53.5C508.267 54.82 508.587 55.84 509.227 56.56C509.867 57.28 510.707 57.64 511.747 57.64C512.547 57.64 513.214 57.4533 513.747 57.08C514.28 56.7067 514.647 56.1733 514.847 55.48H516.807C516.514 56.6 515.927 57.5 515.047 58.18C514.167 58.8467 513.067 59.18 511.747 59.18C510.707 59.18 509.78 58.9467 508.967 58.48C508.167 58.0133 507.54 57.3533 507.087 56.5C506.634 55.6467 506.407 54.6467 506.407 53.5ZM524.015 59.18C522.989 59.18 522.055 58.9467 521.215 58.48C520.389 58.0133 519.735 57.3533 519.255 56.5C518.789 55.6333 518.555 54.6333 518.555 53.5C518.555 52.38 518.795 51.3933 519.275 50.54C519.769 49.6733 520.435 49.0133 521.275 48.56C522.115 48.0933 523.055 47.86 524.095 47.86C525.135 47.86 526.075 48.0933 526.915 48.56C527.755 49.0133 528.415 49.6667 528.895 50.52C529.389 51.3733 529.635 52.3667 529.635 53.5C529.635 54.6333 529.382 55.6333 528.875 56.5C528.382 57.3533 527.709 58.0133 526.855 58.48C526.002 58.9467 525.055 59.18 524.015 59.18ZM524.015 57.58C524.669 57.58 525.282 57.4267 525.855 57.12C526.429 56.8133 526.889 56.3533 527.235 55.74C527.595 55.1267 527.775 54.38 527.775 53.5C527.775 52.62 527.602 51.8733 527.255 51.26C526.909 50.6467 526.455 50.1933 525.895 49.9C525.335 49.5933 524.729 49.44 524.075 49.44C523.409 49.44 522.795 49.5933 522.235 49.9C521.689 50.1933 521.249 50.6467 520.915 51.26C520.582 51.8733 520.415 52.62 520.415 53.5C520.415 54.3933 520.575 55.1467 520.895 55.76C521.229 56.3733 521.669 56.8333 522.215 57.14C522.762 57.4333 523.362 57.58 524.015 57.58ZM533.848 44.2V59H532.028V44.2H533.848ZM536.27 53.48C536.27 52.36 536.497 51.38 536.95 50.54C537.403 49.6867 538.023 49.0267 538.81 48.56C539.61 48.0933 540.497 47.86 541.47 47.86C542.43 47.86 543.263 48.0667 543.97 48.48C544.677 48.8933 545.203 49.4133 545.55 50.04V48.04H547.39V59H545.55V56.96C545.19 57.6 544.65 58.1333 543.93 58.56C543.223 58.9733 542.397 59.18 541.45 59.18C540.477 59.18 539.597 58.94 538.81 58.46C538.023 57.98 537.403 57.3067 536.95 56.44C536.497 55.5733 536.27 54.5867 536.27 53.48ZM545.55 53.5C545.55 52.6733 545.383 51.9533 545.05 51.34C544.717 50.7267 544.263 50.26 543.69 49.94C543.13 49.6067 542.51 49.44 541.83 49.44C541.15 49.44 540.53 49.6 539.97 49.92C539.41 50.24 538.963 50.7067 538.63 51.32C538.297 51.9333 538.13 52.6533 538.13 53.48C538.13 54.32 538.297 55.0533 538.63 55.68C538.963 56.2933 539.41 56.7667 539.97 57.1C540.53 57.42 541.15 57.58 541.83 57.58C542.51 57.58 543.13 57.42 543.69 57.1C544.263 56.7667 544.717 56.2933 545.05 55.68C545.383 55.0533 545.55 54.3267 545.55 53.5Z" fill="black"/>
<path d="M665.68 45.16V59H663.86V48.68L659.26 59H657.98L653.36 48.66V59H651.54V45.16H653.5L658.62 56.6L663.74 45.16H665.68ZM678.767 53.1C678.767 53.4467 678.747 53.8133 678.707 54.2H669.947C670.013 55.28 670.38 56.1267 671.047 56.74C671.727 57.34 672.547 57.64 673.507 57.64C674.293 57.64 674.947 57.46 675.467 57.1C676 56.7267 676.373 56.2333 676.587 55.62H678.547C678.253 56.6733 677.667 57.5333 676.787 58.2C675.907 58.8533 674.813 59.18 673.507 59.18C672.467 59.18 671.533 58.9467 670.707 58.48C669.893 58.0133 669.253 57.3533 668.787 56.5C668.32 55.6333 668.087 54.6333 668.087 53.5C668.087 52.3667 668.313 51.3733 668.767 50.52C669.22 49.6667 669.853 49.0133 670.667 48.56C671.493 48.0933 672.44 47.86 673.507 47.86C674.547 47.86 675.467 48.0867 676.267 48.54C677.067 48.9933 677.68 49.62 678.107 50.42C678.547 51.2067 678.767 52.1 678.767 53.1ZM676.887 52.72C676.887 52.0267 676.733 51.4333 676.427 50.94C676.12 50.4333 675.7 50.0533 675.167 49.8C674.647 49.5333 674.067 49.4 673.427 49.4C672.507 49.4 671.72 49.6933 671.067 50.28C670.427 50.8667 670.06 51.68 669.967 52.72H676.887ZM690.889 48.04V59H689.069V57.38C688.722 57.94 688.236 58.38 687.609 58.7C686.996 59.0067 686.316 59.16 685.569 59.16C684.716 59.16 683.949 58.9867 683.269 58.64C682.589 58.28 682.049 57.7467 681.649 57.04C681.262 56.3333 681.069 55.4733 681.069 54.46V48.04H682.869V54.22C682.869 55.3 683.142 56.1333 683.689 56.72C684.236 57.2933 684.982 57.58 685.929 57.58C686.902 57.58 687.669 57.28 688.229 56.68C688.789 56.08 689.069 55.2067 689.069 54.06V48.04H690.889ZM701.114 50.06C701.474 49.4333 702.007 48.9133 702.714 48.5C703.434 48.0733 704.267 47.86 705.214 47.86C706.187 47.86 707.067 48.0933 707.854 48.56C708.654 49.0267 709.281 49.6867 709.734 50.54C710.187 51.38 710.414 52.36 710.414 53.48C710.414 54.5867 710.187 55.5733 709.734 56.44C709.281 57.3067 708.654 57.98 707.854 58.46C707.067 58.94 706.187 59.18 705.214 59.18C704.281 59.18 703.454 58.9733 702.734 58.56C702.027 58.1333 701.487 57.6067 701.114 56.98V64.2H699.294V48.04H701.114V50.06ZM708.554 53.48C708.554 52.6533 708.387 51.9333 708.054 51.32C707.721 50.7067 707.267 50.24 706.694 49.92C706.134 49.6 705.514 49.44 704.834 49.44C704.167 49.44 703.547 49.6067 702.974 49.94C702.414 50.26 701.961 50.7333 701.614 51.36C701.281 51.9733 701.114 52.6867 701.114 53.5C701.114 54.3267 701.281 55.0533 701.614 55.68C701.961 56.2933 702.414 56.7667 702.974 57.1C703.547 57.42 704.167 57.58 704.834 57.58C705.514 57.58 706.134 57.42 706.694 57.1C707.267 56.7667 707.721 56.2933 708.054 55.68C708.387 55.0533 708.554 54.32 708.554 53.48ZM722.81 53.1C722.81 53.4467 722.79 53.8133 722.75 54.2H713.99C714.056 55.28 714.423 56.1267 715.09 56.74C715.77 57.34 716.59 57.64 717.55 57.64C718.336 57.64 718.99 57.46 719.51 57.1C720.043 56.7267 720.416 56.2333 720.63 55.62H722.59C722.296 56.6733 721.71 57.5333 720.83 58.2C719.95 58.8533 718.856 59.18 717.55 59.18C716.51 59.18 715.576 58.9467 714.75 58.48C713.936 58.0133 713.296 57.3533 712.83 56.5C712.363 55.6333 712.13 54.6333 712.13 53.5C712.13 52.3667 712.356 51.3733 712.81 50.52C713.263 49.6667 713.896 49.0133 714.71 48.56C715.536 48.0933 716.483 47.86 717.55 47.86C718.59 47.86 719.51 48.0867 720.31 48.54C721.11 48.9933 721.723 49.62 722.15 50.42C722.59 51.2067 722.81 52.1 722.81 53.1ZM720.93 52.72C720.93 52.0267 720.776 51.4333 720.47 50.94C720.163 50.4333 719.743 50.0533 719.21 49.8C718.69 49.5333 718.11 49.4 717.47 49.4C716.55 49.4 715.763 49.6933 715.11 50.28C714.47 50.8667 714.103 51.68 714.01 52.72H720.93ZM727.032 49.82C727.352 49.1933 727.805 48.7067 728.392 48.36C728.992 48.0133 729.719 47.84 730.572 47.84V49.72H730.092C728.052 49.72 727.032 50.8267 727.032 53.04V59H725.212V48.04H727.032V49.82ZM737.133 49.54H734.833V59H733.013V49.54H731.593V48.04H733.013V47.26C733.013 46.0333 733.326 45.14 733.953 44.58C734.593 44.0067 735.613 43.72 737.013 43.72V45.24C736.213 45.24 735.646 45.4 735.313 45.72C734.993 46.0267 734.833 46.54 734.833 47.26V48.04H737.133V49.54ZM740.195 46.26C739.848 46.26 739.555 46.14 739.315 45.9C739.075 45.66 738.955 45.3667 738.955 45.02C738.955 44.6733 739.075 44.38 739.315 44.14C739.555 43.9 739.848 43.78 740.195 43.78C740.528 43.78 740.808 43.9 741.035 44.14C741.275 44.38 741.395 44.6733 741.395 45.02C741.395 45.3667 741.275 45.66 741.035 45.9C740.808 46.14 740.528 46.26 740.195 46.26ZM741.075 48.04V59H739.255V48.04H741.075ZM745.997 44.2V59H744.177V44.2H745.997Z" fill="black"/>
<path d="M626 36C617.168 36 610 43.168 610 52C610 60.832 617.168 68 626 68C634.832 68 642 60.832 642 52C642 43.168 634.832 36 626 36ZM618.112 62.048C618.8 60.608 622.992 59.2 626 59.2C629.008 59.2 633.216 60.608 633.888 62.048C631.712 63.776 628.976 64.8 626 64.8C623.024 64.8 620.288 63.776 618.112 62.048ZM636.176 59.728C633.888 56.944 628.336 56 626 56C623.664 56 618.112 56.944 615.824 59.728C614.192 57.584 613.2 54.912 613.2 52C613.2 44.944 618.944 39.2 626 39.2C633.056 39.2 638.8 44.944 638.8 52C638.8 54.912 637.808 57.584 636.176 59.728ZM626 42.4C622.896 42.4 620.4 44.896 620.4 48C620.4 51.104 622.896 53.6 626 53.6C629.104 53.6 631.6 51.104 631.6 48C631.6 44.896 629.104 42.4 626 42.4ZM626 50.4C624.672 50.4 623.6 49.328 623.6 48C623.6 46.672 624.672 45.6 626 45.6C627.328 45.6 628.4 46.672 628.4 48C628.4 49.328 627.328 50.4 626 50.4Z" fill="#002F52"/>
<defs>
<linearGradient id="paint0_linear_113_1797" x1="96" y1="32" x2="96" y2="72" gradientUnits="userSpaceOnUse">
<stop offset="0.677083" stop-color="#FD8325"/>
<stop offset="1" stop-color="#FC6621"/>
</linearGradient>
<clipPath id="clip0_113_1797">
<rect width="38" height="38" fill="white" transform="translate(373 33)"/>
</clipPath>
</defs>
</svg>
